PathFileType	4	(x/y/z)	A01_PREF_T0018.trc
DataRate	CameraRate	NumFrames	NumMarkers	Units	OrigDataRate	OrigDataStartFrame	OrigNumFrames
240	240	4	48	mm	240	179	285
Frame#	Time	TOP_HEAD			R_AC			L_AC			R_ASIS			L_ASIS			R_PSIS			L_PSIS			SACRAL			L_IC			R_IC			L_GT			R_GT			R_LAT_KNEE			R_MED_KNEE			L_MED_KNEE			L_LAT_KNEE			R_TOE			L_TOE			R_1ST_MET			L_1ST_MET			L_5TH_MET			R_5TH_MET			R_LAT_ANK			R_MED_ANK			L_MED_ANK			L_LAT_ANK			L_HEEL_SUP			R_HEEL_SUP			L_HEEL_LAT			R_HEEL_LAT			L_HEEL_MED			R_HEEL_MED			R_SHANK_PROX_POST			R_SHANK_PROX_ANT			R_SHANK_DIST_ANT			R_SHANK_DIST_POST			R_THIGH_PROX_POST			R_THIGH_PROX_ANT			R_THIGH_DIST_ANT			R_THIGH_DIST_POST			L_SHANK_PROX_ANT			L_SHANK_PROX_POST			L_SHANK_DIST_POST			L_SHANK_DIST_ANT			L_THIGH_PROX_ANT			L_THIGH_PROX_POST			L_THIGH_DIST_POST			L_THIGH_DIST_ANT			
		X1	Y1	Z1	X2	Y2	Z2	X3	Y3	Z3	X4	Y4	Z4	X5	Y5	Z5	X6	Y6	Z6	X7	Y7	Z7	X8	Y8	Z8	X9	Y9	Z9	X10	Y10	Z10	X11	Y11	Z11	X12	Y12	Z12	X13	Y13	Z13	X14	Y14	Z14	X15	Y15	Z15	X16	Y16	Z16	X17	Y17	Z17	X18	Y18	Z18	X19	Y19	Z19	X20	Y20	Z20	X21	Y21	Z21	X22	Y22	Z22	X23	Y23	Z23	X24	Y24	Z24	X25	Y25	Z25	X26	Y26	Z26	X27	Y27	Z27	X28	Y28	Z28	X29	Y29	Z29	X30	Y30	Z30	X31	Y31	Z31	X32	Y32	Z32	X33	Y33	Z33	X34	Y34	Z34	X35	Y35	Z35	X36	Y36	Z36	X37	Y37	Z37	X38	Y38	Z38	X39	Y39	Z39	X40	Y40	Z40	X41	Y41	Z41	X42	Y42	Z42	X43	Y43	Z43	X44	Y44	Z44	X45	Y45	Z45	X46	Y46	Z46	X47	Y47	Z47	X48	Y48	Z48	

179	0.74428	471.84	1708.8	344.59	252.45	1512.8	594.1	217.17	1528.4	138.47	232.65	1072.6	563.02	212.94	987.11	216.11	9.5286	1058.3	453.95	13.722	1057.9	320.48	-4.7363	1028.4	388.04	191.85	1117.1	175.92	199.72	1153	581.18	141.61	911.24	179.6	188.73	960.4	611.42	322.2	568.19	545.22	346.83	575.95	415.56	140.51	487.55	370.62	112.5	525.65	219.84	579.65	83.737	451.29	-157.93	63.682	257.74	497.46	60.191	404.65	-220.86	100.73	325.19	-261.97	131.62	206.39	470.99	47.657	537.97	348.2	102.88	513.26	356.53	112.12	410.83	-233.54	251.88	329.23	-267.14	276.31	268.59	-354.83	303.2	324.53	252.02	64.421	454.64	-377.07	283.7	293.05	261.1	41.772	489.2	-363.6	268.42	354.29	264.79	38.267	429.45	256.01	381.05	551	327.34	380.61	566.28	338.67	307.54	548.43	283.31	302.83	539.76	199.44	809.84	593.77	257.31	851.68	598.66	291.26	767.7	587.26	234.1	728.46	579.56	78.989	437.37	226.93	42.918	479.99	224.35	-8.5291	444.24	235.6	31.625	407.26	235.95	189.33	766.53	209.62	119.98	778.88	196.06	124.76	702.55	203.28	187.91	692.51	215.26
180	0.74846	477.59	1709.5	345	258.74	1513.3	594.47	222.85	1528.8	138.92	238.3	1072.8	564.03	219.24	987.92	216.85	15.344	1058.7	454.4	19.708	1058.3	320.92	1.2258	1028.7	388.43	197.81	1117.8	176.38	205.59	1153.6	581.44	148.5	911.76	180.13	194.07	960.34	612.09	326.3	567.96	545.72	351.51	575.81	415.99	151.97	486.9	370.13	123.23	526.36	219.82	580.21	82.27	451.33	-152.29	65.731	256.37	497.84	59.506	404.6	-214.24	103.71	324.56	-255.63	136.36	206.37	471.23	47.157	538.17	348.84	102.93	513.07	357.18	111.96	410.62	-224.97	255.33	329.82	-258.64	280.5	269.53	-344.81	308.68	326.48	252.36	64.809	454.64	-367.63	289.8	295.02	261.31	42.117	489.2	-354.03	273.81	356.07	265.05	38.646	429.44	258.95	381.43	551.09	330.29	380.48	566.35	341.11	307.35	548.34	285.73	303.04	539.7	204.11	809.9	594.08	262.31	851.44	599.47	295.93	767.32	588.12	238.61	728.36	579.98	88.873	438.36	226.56	53.224	481.37	224.49	1.4762	446.05	235.87	41.257	408.65	235.67	197.62	767.25	209.82	128.13	778.95	196.31	133.69	702.68	203.34	196.9	693.21	215.33
181	0.75264	483.31	1710.2	345.39	265.01	1513.8	594.82	228.44	1529.3	139.33	243.96	1072.9	565.04	225.5	988.78	217.56	21.144	1059	454.88	25.652	1058.6	321.4	7.1645	1029	388.86	203.7	1118.5	176.82	211.49	1154.2	581.66	155.34	912.36	180.62	199.4	960.25	612.75	330.33	567.74	546.18	356.01	575.65	416.36	163.41	486.39	369.64	133.92	527.23	219.82	580.72	80.943	451.35	-146.21	67.989	254.89	498.19	58.915	404.54	-207.19	106.7	323.83	-248.94	141.05	206.29	471.45	46.748	538.34	349.44	103	512.85	357.78	111.82	410.39	-216.19	258.66	330.38	-249.95	284.56	270.45	-334.66	313.85	328.42	252.67	65.185	454.62	-358.03	295.56	296.99	261.51	42.454	489.19	-344.25	278.88	357.84	265.3	39.012	429.43	261.79	381.8	551.12	333.14	380.35	566.37	343.46	307.17	548.2	288.07	303.26	539.59	208.75	809.96	594.35	267.26	851.19	600.24	300.53	766.92	588.92	243.07	728.26	580.37	98.784	439.48	226.19	63.533	482.86	224.65	11.519	447.92	236.15	50.944	410.15	235.39	205.86	768.05	210	136.24	779.11	196.53	142.57	702.9	203.38	205.84	694	215.37
182	0.75682	488.99	1711	345.75	271.25	1514.4	595.14	233.96	1529.7	139.71	249.63	1072.9	566.04	231.73	989.68	218.24	26.926	1059.3	455.39	31.553	1058.9	321.91	13.078	1029.3	389.31	209.52	1119.2	177.25	217.44	1154.8	581.84	162.11	913.03	181.09	204.72	960.14	613.4	334.31	567.52	546.59	360.34	575.49	416.67	174.83	486.01	369.15	144.56	528.25	219.84	581.19	79.743	451.35	-139.7	70.425	253.3	498.52	58.41	404.46	-199.73	109.66	323.03	-241.89	145.67	206.15	471.63	46.419	538.5	350.02	103.09	512.63	358.34	111.7	410.14	-207.21	261.84	330.9	-241.07	288.48	271.35	-324.42	318.68	330.35	252.97	65.549	454.6	-348.31	300.95	298.94	261.7	42.784	489.18	-334.31	283.59	359.59	265.54	39.366	429.41	264.53	382.18	551.1	335.89	380.24	566.34	345.73	307.01	548.04	290.32	303.48	539.42	213.36	810.04	594.62	272.17	850.96	600.96	305.09	766.54	589.68	247.47	728.18	580.74	108.72	440.73	225.82	73.844	484.45	224.83	21.598	449.86	236.44	60.688	411.75	235.11	214.04	768.93	210.15	144.3	779.36	196.73	151.4	703.23	203.4	214.71	694.88	215.39
